name C:\Users\u0150099\Documents\master_thesis\3dpredictsim\Results\Final\Fal_s1_bCst_tanh50_ig21.mot
datacolumns 126
datarows 4
range 1.10193481 1.13499286
endheader
time	pelvis_tilt	pelvis_list	pelvis_rotation	pelvis_tx	pelvis_ty	pelvis_tz	hip_flexion_l	hip_adduction_l	hip_rotation_l	hip_flexion_r	hip_adduction_r	hip_rotation_r	knee_angle_l	knee_angle_r	ankle_angle_l	ankle_angle_r	subtalar_angle_l	subtalar_angle_r	mtp_angle_l	mtp_angle_r	lumbar_extension	lumbar_bending	lumbar_rotation	arm_flex_l	arm_add_l	arm_rot_l	arm_flex_r	arm_add_r	arm_rot_r	elbow_flex_l	elbow_flex_r	pro_sup_l	pro_sup_r	glut_med1_l/activation	glut_med2_l/activation	glut_med3_l/activation	glut_min1_l/activation	glut_min2_l/activation	glut_min3_l/activation	semimem_l/activation	semiten_l/activation	bifemlh_l/activation	bifemsh_l/activation	sar_l/activation	add_long_l/activation	add_brev_l/activation	add_mag1_l/activation	add_mag2_l/activation	add_mag3_l/activation	tfl_l/activation	pect_l/activation	grac_l/activation	glut_max1_l/activation	glut_max2_l/activation	glut_max3_l/activation	iliacus_l/activation	psoas_l/activation	quad_fem_l/activation	gem_l/activation	peri_l/activation	rect_fem_l/activation	vas_med_l/activation	vas_int_l/activation	vas_lat_l/activation	med_gas_l/activation	lat_gas_l/activation	soleus_l/activation	tib_post_l/activation	flex_dig_l/activation	flex_hal_l/activation	tib_ant_l/activation	per_brev_l/activation	per_long_l/activation	per_tert_l/activation	ext_dig_l/activation	ext_hal_l/activation	ercspn_l/activation	intobl_l/activation	extobl_l/activation	glut_med1_r/activation	glut_med2_r/activation	glut_med3_r/activation	glut_min1_r/activation	glut_min2_r/activation	glut_min3_r/activation	semimem_r/activation	semiten_r/activation	bifemlh_r/activation	bifemsh_r/activation	sar_r/activation	add_long_r/activation	add_brev_r/activation	add_mag1_r/activation	add_mag2_r/activation	add_mag3_r/activation	tfl_r/activation	pect_r/activation	grac_r/activation	glut_max1_r/activation	glut_max2_r/activation	glut_max3_r/activation	iliacus_r/activation	psoas_r/activation	quad_fem_r/activation	gem_r/activation	peri_r/activation	rect_fem_r/activation	vas_med_r/activation	vas_int_r/activation	vas_lat_r/activation	med_gas_r/activation	lat_gas_r/activation	soleus_r/activation	tib_post_r/activation	flex_dig_r/activation	flex_hal_r/activation	tib_ant_r/activation	per_brev_r/activation	per_long_r/activation	per_tert_r/activation	ext_dig_r/activation	ext_hal_r/activation	ercspn_r/activation	intobl_r/activation	extobl_r/activation	
          1.10193481	         -2.92897598	         -1.97302039	          5.34049121	          1.37741852	          0.91839725	         -0.00288865	        -17.06467623	         -0.97298876	          7.43666334	         29.70706540	          3.44802396	         -1.14422768	         -6.72800312	        -12.73766487	          1.93573190	          5.43027867	         10.73378746	         -4.68695473	         20.38324148	         -0.11088958	         -2.75918969	          0.55466282	         -1.73237763	          7.33597632	        -13.47108047	         18.16061538	         -5.59352138	        -13.53011922	          7.47101102	         35.96073184	         13.71972171	         86.51662706	         86.51662706	          0.28431999	          0.09814559	          0.07005203	          0.35486961	          0.21236564	          0.11187351	          0.05000013	          0.05000004	          0.05000002	          0.07238807	          0.09963610	          0.10611641	          0.10144054	          0.05000037	          0.05000052	          0.05000015	          0.40482730	          0.07905449	          0.05000035	          0.05000033	          0.05000021	          0.05000017	          0.32171453	          0.62228872	          0.05000004	          0.05000008	          0.05000005	          0.17292540	          0.06160603	          0.05856275	          0.05005212	          0.27191938	          0.35426701	          0.28943257	          0.24798412	          0.32323035	          0.40916818	          0.05000000	          0.05918255	          0.11853823	          0.05000002	          0.05000000	          0.05000002	          0.05000006	          0.05000002	          0.05000012	          0.05918277	          0.05918279	          0.05000002	          0.05918280	          0.05918279	          0.05918274	          0.06093714	          0.05000027	          0.24772679	          0.05000001	          0.05000005	          0.13750590	          0.29448726	          0.13217879	          0.15669312	          0.12366413	          0.05000002	          0.08292301	          0.06091282	          0.05000012	          0.05000011	          0.15871721	          0.05000351	          0.05000004	          0.27019703	          0.24978703	          0.12814411	          0.05471447	          0.15827054	          0.15557520	          0.13655647	          0.05000016	          0.05000024	          0.05353840	          0.05000000	          0.05000011	          0.05000003	          0.55808241	          0.27391903	          0.15156859	          0.34055419	          0.47142573	          0.28107518	          0.05918278	          0.09072262	          0.09593378	
          1.11295416	         -2.92326262	         -2.10617561	          5.64026675	          1.39398746	          0.91739610	         -0.00261585	        -16.83821327	         -1.29385617	          7.25038786	         29.05073660	          3.83450789	         -0.95256081	         -8.82996318	        -12.88237162	          1.22812553	          4.82671162	         11.65998629	         -5.05617319	         21.30904692	         -0.07644308	         -2.57186862	          0.77604562	         -1.82471689	          7.03813651	        -13.48907368	         18.31729992	         -6.50776541	        -13.53612235	          7.20131724	         37.26181560	         13.50898111	         86.51662706	         86.51662706	          0.24020497	          0.08291734	          0.05918279	          0.29980814	          0.17941504	          0.09451525	          0.05000073	          0.05000012	          0.05000013	          0.06115636	          0.08417660	          0.19300762	          0.12759765	          0.07005226	          0.05918333	          0.05918373	          0.34201448	          0.06678860	          0.05000040	          0.05000165	          0.05000186	          0.05918236	          0.27179738	          0.58217170	          0.05000098	          0.05918279	          0.05283631	          0.14609436	          0.15111468	          0.15128220	          0.12916606	          0.22972842	          0.29929901	          0.24452428	          0.21980897	          0.27307814	          0.34568215	          0.05000000	          0.05000001	          0.12711580	          0.05000001	          0.05000000	          0.05000002	          0.06988149	          0.06299840	          0.05128258	          0.05000000	          0.05000001	          0.11795813	          0.05000001	          0.05000001	          0.05000001	          0.05148215	          0.05000032	          0.20928955	          0.05000012	          0.05000025	          0.11617056	          0.27926585	          0.34585914	          0.23755170	          0.13858124	          0.05000010	          0.07005709	          0.15493784	          0.08206144	          0.09134471	          0.13409071	          0.05000001	          0.05000011	          0.47271641	          0.21103013	          0.10826130	          0.05918283	          0.15840277	          0.16817053	          0.13181013	          0.05000004	          0.05918295	          0.05000000	          0.06545392	          0.05000033	          0.05918287	          0.47149046	          0.32152859	          0.18565647	          0.28771399	          0.46869148	          0.23746363	          0.05000000	          0.07664611	          0.08104872	
          1.12397351	         -2.91334214	         -2.24401479	          5.91132069	          1.41080236	          0.91642818	         -0.00234846	        -16.52646245	         -1.61006044	          7.05077096	         28.26680945	          4.13721824	         -0.73889836	        -11.07109583	        -13.29670540	          0.33126210	          4.38417820	         12.52530445	         -5.44422173	         22.07579759	         -0.16454643	         -2.36656011	          1.00522680	         -1.90703073	          6.66066198	        -13.50587242	         18.39526869	         -7.42885073	        -13.54678493	          6.99451355	         38.54281895	         13.33337968	         86.51662706	         86.51662706	          0.33459790	          0.07005191	          0.05000001	          0.37047817	          0.15157706	          0.07985029	          0.05000034	          0.05000004	          0.05000003	          0.05166736	          0.07111582	          0.16306075	          0.12814920	          0.05918302	          0.05000069	          0.05000084	          0.40545885	          0.08291771	          0.05000028	          0.05000029	          0.05000017	          0.05000012	          0.22962537	          0.54262389	          0.05000002	          0.05000012	          0.05000002	          0.12342639	          0.12766778	          0.12780931	          0.10912470	          0.19408380	          0.25285984	          0.20658394	          0.18570348	          0.23070743	          0.29204622	          0.05000000	          0.09741412	          0.14955313	          0.05000002	          0.05000000	          0.05000002	          0.06478730	          0.05322358	          0.05000000	          0.27007854	          0.27020851	          0.31664281	          0.34840219	          0.20455918	          0.16614426	          0.07179385	          0.05000054	          0.17681624	          0.05000017	          0.05000030	          0.09814557	          0.23593504	          0.29219573	          0.20069326	          0.12802508	          0.05000007	          0.05918734	          0.13089777	          0.16625072	          0.10834413	          0.11328524	          0.05000018	          0.05000006	          0.39936985	          0.17828677	          0.21677907	          0.05000004	          0.13382505	          0.14207725	          0.11135852	          0.05000010	          0.05000019	          0.05187819	          0.05529812	          0.05000007	          0.05000014	          0.57138926	          0.35934780	          0.16551097	          0.42823290	          0.52467013	          0.30007526	          0.06860576	          0.09701745	          0.06847322	
          1.13499286	         -2.90149290	         -2.37357049	          6.14875793	          1.42765395	          0.91552736	         -0.00204760	        -16.10198620	         -1.90999148	          6.85141735	         27.42488648	          4.41937328	         -0.52993121	        -13.47089612	        -13.65951587	         -0.75614909	          4.00329427	         13.33366674	         -5.84638015	         22.62420490	         -0.17786797	         -2.16534704	          1.22808279	         -1.98163247	          6.24371448	        -13.52776456	         18.42300105	         -8.30995760	        -13.55468735	          6.84443264	         39.76903406	         13.16745602	         86.51662706	         86.51662706	          0.28268185	          0.05918268	          0.05000001	          0.31299495	          0.12805840	          0.06746074	          0.05000056	          0.05000004	          0.05000003	          0.05000002	          0.06008153	          0.18601372	          0.13801532	          0.05000036	          0.05000048	          0.05000113	          0.39964898	          0.07005235	          0.05000015	          0.05000033	          0.05000021	          0.05000014	          0.19399674	          0.49368095	          0.05000002	          0.05000009	          0.05000002	          0.10427559	          0.11339559	          0.11616895	          0.11408142	          0.16396980	          0.21362616	          0.17453041	          0.15688978	          0.19491094	          0.24673241	          0.05000009	          0.10849981	          0.13815235	          0.05000004	          0.11025373	          0.05000009	          0.09431136	          0.05000000	          0.05000000	          0.34964346	          0.36065080	          0.40069924	          0.29434421	          0.17281988	          0.18229088	          0.07547392	          0.11750080	          0.14938148	          0.07005202	          0.05000013	          0.08291733	          0.19932744	          0.24685884	          0.21869852	          0.18128499	          0.05000003	          0.05000426	          0.14579248	          0.25587706	          0.18382015	          0.17280143	          0.05000002	          0.05000002	          0.33740374	          0.15062385	          0.18689874	          0.05000000	          0.16239447	          0.18308414	          0.12814066	          0.05000000	          0.05000000	          0.05000000	          0.05000000	          0.05000001	          0.05000001	          0.62182523	          0.30359628	          0.14109972	          0.67037949	          0.54919868	          0.37958883	          0.09049736	          0.08196424	          0.05784893	
